<?xml version="1.0" standalone="no"?>
<!DOCTYPE svg PUBLIC "-//W3C//DTD SVG 20010904//EN"
 "http://www.w3.org/TR/2001/REC-SVG-20010904/DTD/svg10.dtd">
<svg version="1.0" xmlns="http://www.w3.org/2000/svg"
 width="512.000000pt" height="512.000000pt" viewBox="0 0 512.000000 512.000000"
 preserveAspectRatio="xMidYMid meet">

<g transform="translate(0.000000,512.000000) scale(0.100000,-0.100000)"
fill="#000000" stroke="none">
<path d="M1190 4794 c-170 -34 -336 -105 -450 -192 -395 -300 -521 -823 -304
-1264 53 -109 102 -177 194 -269 147 -147 314 -237 520 -279 195 -40 432 -14
614 69 150 68 304 193 407 331 57 76 134 239 161 340 20 74 23 109 23 260 0
152 -3 185 -23 255 -104 359 -366 622 -725 726 -56 16 -106 22 -232 24 -88 2
-171 1 -185 -1z"/>
<path d="M3708 4779 c-365 -53 -688 -259 -867 -552 -173 -282 -194 -626 -56
-924 78 -168 228 -340 393 -449 77 -52 164 -95 310 -154 l22 -10 0 -1028 0
-1028 193 -139 c105 -76 197 -138 202 -138 11 0 401 269 410 282 2 5 2 67 -2
140 l-6 131 -88 0 -87 0 -7 93 c-4 50 -5 110 -3 132 l3 40 93 3 92 3 0 144 0
144 -92 3 -93 3 -3 133 -3 132 96 0 95 0 0 135 0 135 -95 0 -95 0 0 135 0 135
95 0 95 0 0 208 0 208 84 33 c352 137 602 409 698 759 31 114 31 333 -1 457
-26 103 -90 246 -149 331 -172 254 -480 443 -811 498 -101 17 -324 20 -423 5z
m282 -465 c103 -30 190 -149 190 -259 0 -113 -87 -229 -195 -261 -132 -38
-264 21 -326 144 -33 66 -33 169 0 232 67 131 192 185 331 144z"/>
<path d="M420 2590 c-148 -35 -287 -156 -360 -311 -60 -128 -60 -135 -60
-1077 0 -472 4 -863 8 -870 7 -10 282 -12 1343 -10 l1334 3 0 905 0 905 -24
74 c-45 137 -152 270 -268 333 -108 59 -86 58 -1053 57 -487 -1 -901 -5 -920
-9z"/>
</g>
</svg>
